<svg width="236" height="51" viewBox="0 0 236 51" fill="none" xmlns="http://www.w3.org/2000/svg">
<path d="M4.05384 29.5187V35.9173C4.05384 36.0469 3.94942 36.1528 3.81918 36.1528H0.234662C0.104414 36.1528 0 36.0469 0 35.9173V17.6475C0 17.5179 0.104414 17.4131 0.234662 17.4131H18.5103C18.6395 17.4131 18.7439 17.5179 18.7439 17.6475V20.7604C18.7439 20.8911 18.6395 20.9959 18.5103 20.9959H4.3251C4.19593 20.9959 4.09151 21.1018 4.09151 21.2315V25.7263C4.09151 25.8559 4.19593 25.9607 4.3251 25.9607H15.8687C15.999 25.9607 16.1034 26.0666 16.1034 26.1963V29.0487C16.1034 29.1784 15.999 29.2832 15.8687 29.2832H4.2885C4.15825 29.2832 4.05384 29.3891 4.05384 29.5187Z" fill="#F6F6F3"/>
<path d="M26.623 35.9173V17.6486C26.623 17.5179 26.7275 17.4131 26.8577 17.4131H45.2442C45.3745 17.4131 45.4789 17.5179 45.4789 17.6486V20.4254C45.4789 20.5551 45.3745 20.6599 45.2442 20.6599H30.9115C30.7813 20.6599 30.6769 20.7658 30.6769 20.8954V24.9796C30.6769 25.1093 30.7813 25.2152 30.9115 25.2152H42.5661C42.6963 25.2152 42.8007 25.32 42.8007 25.4497V27.9283C42.8007 28.0579 42.6963 28.1638 42.5661 28.1638H30.9115C30.7813 28.1638 30.6769 28.2686 30.6769 28.3993V32.7072C30.6769 32.8369 30.7813 32.9417 30.9115 32.9417H45.2442C45.3745 32.9417 45.4789 33.0475 45.4789 33.1772V35.9173C45.4789 36.0469 45.3745 36.1528 45.2442 36.1528H26.8577C26.7275 36.1528 26.623 36.0469 26.623 35.9173Z" fill="#F6F6F3"/>
<path d="M80.6715 36.0025L76.6079 25.5035C76.5412 25.3306 76.3098 25.3004 76.2 25.4506L68.3496 36.265C68.2548 36.3936 68.0632 36.3936 67.9696 36.2639L60.1558 25.4516C60.046 25.3015 59.8145 25.3317 59.7467 25.5046L55.6843 36.0025C55.6488 36.0932 55.5626 36.1527 55.4658 36.1527H51.7305C51.5648 36.1527 51.4518 35.9852 51.512 35.8307L58.7015 17.521C58.7704 17.347 59.0051 17.3189 59.1116 17.4723L67.9674 30.1668C68.0611 30.2997 68.2581 30.2997 68.3517 30.1668L77.2441 17.4713C77.3507 17.3178 77.5853 17.3459 77.6531 17.521L84.8426 35.8307C84.904 35.9852 84.791 36.1527 84.6252 36.1527H80.89C80.7931 36.1527 80.707 36.0932 80.6715 36.0025Z" fill="#F6F6F3"/>
<path d="M121.647 35.9173V17.6486C121.647 17.5179 121.752 17.4131 121.882 17.4131H140.269C140.398 17.4131 140.503 17.5179 140.503 17.6486V20.4254C140.503 20.5551 140.398 20.6599 140.269 20.6599H125.936C125.806 20.6599 125.701 20.7658 125.701 20.8954V24.9796C125.701 25.1093 125.806 25.2152 125.936 25.2152H137.59C137.721 25.2152 137.825 25.32 137.825 25.4497V27.9283C137.825 28.0579 137.721 28.1638 137.59 28.1638H125.936C125.806 28.1638 125.701 28.2686 125.701 28.3993V32.7072C125.701 32.8369 125.806 32.9417 125.936 32.9417H140.269C140.398 32.9417 140.503 33.0475 140.503 33.1772V35.9173C140.503 36.0469 140.398 36.1528 140.269 36.1528H121.882C121.752 36.1528 121.647 36.0469 121.647 35.9173Z" fill="#F6F6F3"/>
<path d="M145.586 17.4128H149.817C149.898 17.4128 149.974 17.455 150.016 17.5252L157.522 29.781C157.614 29.9301 157.829 29.9312 157.921 29.7821L165.536 17.5241C165.579 17.455 165.654 17.4128 165.735 17.4128H169.928C170.115 17.4128 170.227 17.6214 170.124 17.778L157.916 36.2304C157.824 36.3709 157.618 36.3698 157.526 36.2293L145.39 17.778C145.288 17.6214 145.4 17.4128 145.586 17.4128Z" fill="#F6F6F3"/>
<path d="M176.277 35.9173V17.6486C176.277 17.5179 176.382 17.4131 176.512 17.4131H180.097C180.227 17.4131 180.331 17.5179 180.331 17.6486V35.9173C180.331 36.0469 180.227 36.1528 180.097 36.1528H176.512C176.382 36.1528 176.277 36.0469 176.277 35.9173Z" fill="#F6F6F3"/>
<path d="M195.576 35.9173V21.1569C195.576 21.0273 195.472 20.9225 195.341 20.9225H187.331C187.201 20.9225 187.097 20.8166 187.097 20.6869V17.6486C187.097 17.5179 187.201 17.4131 187.331 17.4131H207.875C208.004 17.4131 208.109 17.5179 208.109 17.6486V20.6869C208.109 20.8166 208.004 20.9225 207.875 20.9225H199.864C199.734 20.9225 199.63 21.0273 199.63 21.1569V35.9173C199.63 36.0469 199.524 36.1528 199.395 36.1528H195.811C195.68 36.1528 195.576 36.0469 195.576 35.9173Z" fill="#F6F6F3"/>
<path d="M222.211 35.9173V29.3696C222.211 29.3145 222.192 29.2605 222.155 29.2183L212.533 17.7999C212.405 17.6475 212.512 17.4131 212.713 17.4131H217.118C217.187 17.4131 217.253 17.4433 217.298 17.4974L224.076 25.6333C224.17 25.7457 224.342 25.7457 224.436 25.6333L231.215 17.4974C231.259 17.4433 231.326 17.4131 231.395 17.4131H235.765C235.965 17.4131 236.073 17.6465 235.944 17.7999L226.357 29.2183C226.322 29.2605 226.303 29.3145 226.303 29.3696V35.9173C226.303 36.0469 226.197 36.1528 226.068 36.1528H222.446C222.315 36.1528 222.211 36.0469 222.211 35.9173Z" fill="#F6F6F3"/>
<path d="M107.712 28.5727C107.712 28.5727 109.218 30.0022 110.195 32.0443C110.113 31.8401 109.218 29.3485 107.712 27.5517V25.2232H102.178C104.254 25.918 106.126 27.1022 107.712 28.5727ZM113.491 17.7496V18.4022H107.712V12.5622C107.712 11.0096 107.061 9.58012 106.085 8.55907C105.068 7.53802 103.643 6.92539 102.097 6.92539C99.0052 6.92539 96.482 9.45802 96.482 12.5622V38.8242C96.482 41.9284 99.0052 44.4611 102.097 44.4611C105.189 44.4611 107.712 41.9284 107.712 38.8242V29.7158C105.719 27.6338 103.115 26.1222 100.144 25.5506L98.679 25.2232V24.4474H113.491V33.8011C113.491 36.9453 112.188 39.8042 110.154 41.8874C108.078 43.9295 105.23 45.1958 102.097 45.1958C95.8308 45.1958 90.7446 40.0906 90.7446 33.8011V17.5454C90.7446 14.4001 92.0062 11.5401 94.0816 9.49908C96.116 7.41484 98.9643 6.14961 102.138 6.14961C108.444 6.14961 113.491 11.418 113.491 17.7496Z" fill="#F6F6F3"/>
</svg>
