<svg width="195" height="40" viewBox="0 0 195 40" fill="none" xmlns="http://www.w3.org/2000/svg">
<path d="M7.46535 23.0393V28.0951C7.46535 28.1976 7.38284 28.2812 7.27993 28.2812H4.44763C4.34471 28.2812 4.26221 28.1976 4.26221 28.0951V13.6593C4.26221 13.5568 4.34471 13.474 4.44763 13.474H18.8881C18.9902 13.474 19.0727 13.5568 19.0727 13.6593V16.1189C19.0727 16.2222 18.9902 16.305 18.8881 16.305H7.67968C7.57762 16.305 7.49512 16.3887 7.49512 16.4911V20.0427C7.49512 20.1451 7.57762 20.228 7.67968 20.228H16.8009C16.9038 20.228 16.9863 20.3116 16.9863 20.4141V22.6679C16.9863 22.7704 16.9038 22.8532 16.8009 22.8532H7.65076C7.54785 22.8532 7.46535 22.9369 7.46535 23.0393Z" fill="#023436"/>
<path d="M25.2983 28.0951V13.6602C25.2983 13.5568 25.3808 13.474 25.4838 13.474H40.0119C40.1148 13.474 40.1973 13.5568 40.1973 13.6602V15.8543C40.1973 15.9567 40.1148 16.0395 40.0119 16.0395H28.6869C28.584 16.0395 28.5015 16.1232 28.5015 16.2256V19.4528C28.5015 19.5552 28.584 19.6389 28.6869 19.6389H37.8957C37.9986 19.6389 38.0811 19.7217 38.0811 19.8241V21.7826C38.0811 21.8851 37.9986 21.9687 37.8957 21.9687H28.6869C28.584 21.9687 28.5015 22.0515 28.5015 22.1548V25.5587C28.5015 25.6611 28.584 25.7439 28.6869 25.7439H40.0119C40.1148 25.7439 40.1973 25.8276 40.1973 25.9301V28.0951C40.1973 28.1976 40.1148 28.2812 40.0119 28.2812H25.4838C25.3808 28.2812 25.2983 28.1976 25.2983 28.0951Z" fill="#023436"/>
<path d="M68.005 28.1627L64.7942 19.867C64.7414 19.7304 64.5586 19.7065 64.4718 19.8251L58.2688 28.3702C58.194 28.4718 58.0426 28.4718 57.9686 28.3693L51.7945 19.826C51.7077 19.7073 51.5249 19.7312 51.4713 19.8678L48.2613 28.1627C48.2333 28.2345 48.1652 28.2814 48.0887 28.2814H45.1373C45.0063 28.2814 44.917 28.1491 44.9646 28.027L50.6454 13.5596C50.6998 13.4221 50.8853 13.3999 50.9695 13.5212L57.9669 23.5517C58.0409 23.6567 58.1965 23.6567 58.2705 23.5517L65.2968 13.5203C65.381 13.3991 65.5665 13.4213 65.62 13.5596L71.3008 28.027C71.3493 28.1491 71.26 28.2814 71.129 28.2814H68.1776C68.1011 28.2814 68.033 28.2345 68.005 28.1627Z" fill="#023436"/>
<path d="M100.382 28.0951V13.6602C100.382 13.5568 100.464 13.474 100.567 13.474H115.095C115.197 13.474 115.281 13.5568 115.281 13.6602V15.8543C115.281 15.9567 115.197 16.0395 115.095 16.0395H103.77C103.667 16.0395 103.585 16.1232 103.585 16.2256V19.4528C103.585 19.5552 103.667 19.6389 103.77 19.6389H112.979C113.082 19.6389 113.165 19.7217 113.165 19.8241V21.7826C113.165 21.8851 113.082 21.9687 112.979 21.9687H103.77C103.667 21.9687 103.585 22.0515 103.585 22.1548V25.5587C103.585 25.6611 103.667 25.7439 103.77 25.7439H115.095C115.197 25.7439 115.281 25.8276 115.281 25.9301V28.0951C115.281 28.1976 115.197 28.2812 115.095 28.2812H100.567C100.464 28.2812 100.382 28.1976 100.382 28.0951Z" fill="#023436"/>
<path d="M119.297 13.4743H122.64C122.704 13.4743 122.764 13.5076 122.798 13.5631L128.728 23.247C128.801 23.3648 128.971 23.3657 129.043 23.2479L135.061 13.5622C135.095 13.5076 135.153 13.4743 135.218 13.4743H138.531C138.679 13.4743 138.767 13.6391 138.686 13.7628L129.04 28.343C128.967 28.454 128.804 28.4531 128.731 28.3421L119.142 13.7628C119.061 13.6391 119.15 13.4743 119.297 13.4743Z" fill="#023436"/>
<path d="M143.548 28.0951V13.6602C143.548 13.5568 143.63 13.474 143.733 13.474H146.566C146.668 13.474 146.751 13.5568 146.751 13.6602V28.0951C146.751 28.1976 146.668 28.2812 146.566 28.2812H143.733C143.63 28.2812 143.548 28.1976 143.548 28.0951Z" fill="#023436"/>
<path d="M158.796 28.0951V16.4322C158.796 16.3298 158.714 16.247 158.611 16.247H152.281C152.179 16.247 152.097 16.1633 152.097 16.0609V13.6602C152.097 13.5568 152.179 13.474 152.281 13.474H168.515C168.617 13.474 168.699 13.5568 168.699 13.6602V16.0609C168.699 16.1633 168.617 16.247 168.515 16.247H162.185C162.082 16.247 162 16.3298 162 16.4322V28.0951C162 28.1976 161.916 28.2812 161.814 28.2812H158.982C158.879 28.2812 158.796 28.1976 158.796 28.0951Z" fill="#023436"/>
<path d="M179.842 28.0951V22.9215C179.842 22.8779 179.827 22.8353 179.798 22.802L172.195 13.7797C172.094 13.6593 172.179 13.474 172.337 13.474H175.819C175.873 13.474 175.925 13.4979 175.961 13.5406L181.316 19.9693C181.39 20.0581 181.527 20.0581 181.601 19.9693L186.957 13.5406C186.992 13.4979 187.045 13.474 187.099 13.474H190.552C190.71 13.474 190.796 13.6584 190.694 13.7797L183.119 22.802C183.091 22.8353 183.075 22.8779 183.075 22.9215V28.0951C183.075 28.1976 182.992 28.2812 182.89 28.2812H180.028C179.925 28.2812 179.842 28.1976 179.842 28.0951Z" fill="#023436"/>
<path d="M89.3714 22.292C89.3714 22.292 90.5613 23.4215 91.3328 25.0351C91.2681 24.8737 90.5613 22.905 89.3714 21.4852V19.6454H84.9988C86.6387 20.1944 88.1177 21.1301 89.3714 22.292ZM93.9371 13.7401V14.2558H89.3714V9.64135C89.3714 8.41453 88.8569 7.28503 88.0854 6.47825C87.2817 5.67147 86.1564 5.1874 84.9342 5.1874C82.4914 5.1874 80.4977 7.18856 80.4977 9.64135V30.3923C80.4977 32.8451 82.4914 34.8462 84.9342 34.8462C87.3778 34.8462 89.3714 32.8451 89.3714 30.3923V23.1953C87.7962 21.5501 85.7388 20.3557 83.3913 19.9041L82.2337 19.6454V19.0324H93.9371V26.4233C93.9371 28.9076 92.908 31.1666 91.3005 32.8126C89.6606 34.4262 87.4101 35.4268 84.9342 35.4268C79.9832 35.4268 75.9644 31.3929 75.9644 26.4233V13.5788C75.9644 11.0936 76.9612 8.83371 78.601 7.221C80.2086 5.57414 82.4591 4.57442 84.9665 4.57442C89.9498 4.57442 93.9371 8.73724 93.9371 13.7401Z" fill="#023436"/>
</svg>
